<svg xmlns="http://www.w3.org/2000/svg" xmlns:xlink="http://www.w3.org/1999/xlink" contentStyleType="text/css" data-diagram-type="CLASS" height="827px" preserveAspectRatio="none" style="width:2203px;height:827px;background:#FFFFFF;" version="1.1" viewBox="0 0 2203 827" width="2203px" zoomAndPan="magnify"><title>SupportApp - Kernklassen</title><defs/><g><text fill="#000000" font-family="sans-serif" font-size="14" font-weight="bold" lengthAdjust="spacing" textLength="176.5791" x="1009.7104" y="24.5332">SupportApp - Kernklassen</text><!--cluster FastAPI Layer--><g id="cluster_FastAPI Layer"><rect fill="#FFFFFF" fill-opacity="0.00000" height="225" rx="2.5" ry="2.5" style="stroke:#000000;stroke-width:1.5;" width="280" x="1459" y="50.6094"/><text fill="#000000" font-family="sans-serif" font-size="14" font-weight="bold" lengthAdjust="spacing" textLength="93.3721" x="1552.314" y="67.1426">FastAPI Layer</text></g><!--cluster Retrieval Pipeline--><g id="cluster_Retrieval Pipeline"><rect fill="#FFFFFF" fill-opacity="0.00000" height="347" rx="2.5" ry="2.5" style="stroke:#000000;stroke-width:1.5;" width="1078" x="751" y="313.6094"/><text fill="#000000" font-family="sans-serif" font-size="14" font-weight="bold" lengthAdjust="spacing" textLength="116.7168" x="1231.6416" y="330.1426">Retrieval Pipeline</text></g><!--cluster Embedding & Index--><g id="cluster_Embedding &amp; Index"><rect fill="#FFFFFF" fill-opacity="0.00000" height="282" rx="2.5" ry="2.5" style="stroke:#000000;stroke-width:1.5;" width="482" x="222" y="523.6094"/><text fill="#000000" font-family="sans-serif" font-size="14" font-weight="bold" lengthAdjust="spacing" textLength="130.6758" x="397.6621" y="540.1426">Embedding &amp; Index</text></g><!--cluster LLM Access--><g id="cluster_LLM Access"><rect fill="#FFFFFF" fill-opacity="0.00000" height="137" rx="2.5" ry="2.5" style="stroke:#000000;stroke-width:1.5;" width="360" x="1837" y="523.6094"/><text fill="#000000" font-family="sans-serif" font-size="14" font-weight="bold" lengthAdjust="spacing" textLength="81.6963" x="1976.1519" y="540.1426">LLM Access</text></g><!--class FaissIndex--><g id="elem_FaissIndex"><rect codeLine="77" fill="#F1F1F1" height="111.5313" id="FaissIndex" rx="2.5" ry="2.5" style="stroke:#181818;stroke-width:0.5;" width="99.6963" x="714" y="708.6094"/><ellipse cx="729" cy="729.9609" fill="#ADD1B2" rx="11" ry="11" style="stroke:#181818;stroke-width:1;"/><path d="M731.7656,725.8359 Q731.9219,725.6172 732.1094,725.5078 Q732.2969,725.3984 732.5156,725.3984 Q732.8906,725.3984 733.125,725.6641 Q733.3594,725.9141 733.3594,726.5234 L733.3594,727.9766 Q733.3594,728.5859 733.125,728.8516 Q732.8906,729.1172 732.5156,729.1172 Q732.1719,729.1172 731.9688,728.9141 Q731.7656,728.7266 731.6563,728.2109 Q731.6094,727.8516 731.4219,727.6641 Q731.0938,727.2891 730.4844,727.0703 Q729.875,726.8516 729.25,726.8516 Q728.4844,726.8516 727.8438,727.1797 Q727.2188,727.5078 726.7188,728.2578 Q726.2344,729.0078 726.2344,730.0391 L726.2344,731.1328 Q726.2344,732.3672 727.125,733.1953 Q728.0156,734.0078 729.6094,734.0078 Q730.5469,734.0078 731.2031,733.7578 Q731.5938,733.6016 732.0156,733.1641 Q732.2813,732.8984 732.4219,732.8203 Q732.5781,732.7422 732.7813,732.7422 Q733.1094,732.7422 733.3594,733.0078 Q733.625,733.2578 733.625,733.6016 Q733.625,733.9453 733.2813,734.3516 Q732.7813,734.9297 731.9844,735.2578 Q730.9063,735.7109 729.6094,735.7109 Q728.0938,735.7109 726.8906,735.0859 Q725.9063,734.5859 725.2188,733.5234 Q724.5313,732.4453 724.5313,731.1641 L724.5313,730.0078 Q724.5313,728.6797 725.1406,727.5391 Q725.7656,726.3828 726.8594,725.7734 Q727.9531,725.1484 729.1875,725.1484 Q729.9219,725.1484 730.5625,725.3203 Q731.2188,725.4766 731.7656,725.8359 Z " fill="#000000"/><text fill="#000000" font-family="sans-serif" font-size="12" font-style="italic" lengthAdjust="spacing" textLength="60.0352" x="746.8306" y="726.0664">&#171;resource&#187;</text><text fill="#000000" font-family="sans-serif" font-size="14" lengthAdjust="spacing" textLength="67.6963" x="743" y="743.2363">FaissIndex</text><line style="stroke:#181818;stroke-width:0.5;" x1="715" x2="812.6963" y1="751.3125" y2="751.3125"/><text fill="#000000" font-family="sans-serif" font-size="14" lengthAdjust="spacing" textLength="67.3271" x="720" y="769.8457">+index_file</text><text fill="#000000" font-family="sans-serif" font-size="14" lengthAdjust="spacing" textLength="79.7617" x="720" y="787.4551">+vectors.npy</text><text fill="#000000" font-family="sans-serif" font-size="14" lengthAdjust="spacing" textLength="74.3203" x="720" y="805.0645">+chunks.pkl</text><line style="stroke:#181818;stroke-width:0.5;" x1="715" x2="812.6963" y1="812.1406" y2="812.1406"/></g><!--class SentenceTransformerModel--><g id="elem_SentenceTransformerModel"><rect codeLine="83" fill="#F1F1F1" height="76.3125" id="SentenceTransformerModel" rx="2.5" ry="2.5" style="stroke:#181818;stroke-width:0.5;" width="205.5234" x="6" y="726.6094"/><ellipse cx="21" cy="747.9609" fill="#ADD1B2" rx="11" ry="11" style="stroke:#181818;stroke-width:1;"/><path d="M23.7656,743.8359 Q23.9219,743.6172 24.1094,743.5078 Q24.2969,743.3984 24.5156,743.3984 Q24.8906,743.3984 25.125,743.6641 Q25.3594,743.9141 25.3594,744.5234 L25.3594,745.9766 Q25.3594,746.5859 25.125,746.8516 Q24.8906,747.1172 24.5156,747.1172 Q24.1719,747.1172 23.9688,746.9141 Q23.7656,746.7266 23.6563,746.2109 Q23.6094,745.8516 23.4219,745.6641 Q23.0938,745.2891 22.4844,745.0703 Q21.875,744.8516 21.25,744.8516 Q20.4844,744.8516 19.8438,745.1797 Q19.2188,745.5078 18.7188,746.2578 Q18.2344,747.0078 18.2344,748.0391 L18.2344,749.1328 Q18.2344,750.3672 19.125,751.1953 Q20.0156,752.0078 21.6094,752.0078 Q22.5469,752.0078 23.2031,751.7578 Q23.5938,751.6016 24.0156,751.1641 Q24.2813,750.8984 24.4219,750.8203 Q24.5781,750.7422 24.7813,750.7422 Q25.1094,750.7422 25.3594,751.0078 Q25.625,751.2578 25.625,751.6016 Q25.625,751.9453 25.2813,752.3516 Q24.7813,752.9297 23.9844,753.2578 Q22.9063,753.7109 21.6094,753.7109 Q20.0938,753.7109 18.8906,753.0859 Q17.9063,752.5859 17.2188,751.5234 Q16.5313,750.4453 16.5313,749.1641 L16.5313,748.0078 Q16.5313,746.6797 17.1406,745.5391 Q17.7656,744.3828 18.8594,743.7734 Q19.9531,743.1484 21.1875,743.1484 Q21.9219,743.1484 22.5625,743.3203 Q23.2188,743.4766 23.7656,743.8359 Z " fill="#000000"/><text fill="#000000" font-family="sans-serif" font-size="12" font-style="italic" lengthAdjust="spacing" textLength="60.0352" x="91.7441" y="744.0664">&#171;resource&#187;</text><text fill="#000000" font-family="sans-serif" font-size="14" lengthAdjust="spacing" textLength="173.5234" x="35" y="761.2363">SentenceTransformerModel</text><line style="stroke:#181818;stroke-width:0.5;" x1="7" x2="210.5234" y1="769.3125" y2="769.3125"/><text fill="#000000" font-family="sans-serif" font-size="14" lengthAdjust="spacing" textLength="164.7803" x="12" y="787.8457">+name="all-MiniLM-L6-v2"</text><line style="stroke:#181818;stroke-width:0.5;" x1="7" x2="210.5234" y1="794.9219" y2="794.9219"/></g><!--class OllamaAPI--><g id="elem_OllamaAPI"><rect codeLine="87" fill="#F1F1F1" height="76.3125" id="OllamaAPI" rx="2.5" ry="2.5" style="stroke:#181818;stroke-width:0.5;" width="143.9131" x="1945" y="726.6094"/><ellipse cx="1980.2513" cy="747.9609" fill="#ADD1B2" rx="11" ry="11" style="stroke:#181818;stroke-width:1;"/><path d="M1983.0169,743.8359 Q1983.1732,743.6172 1983.3607,743.5078 Q1983.5482,743.3984 1983.7669,743.3984 Q1984.1419,743.3984 1984.3763,743.6641 Q1984.6107,743.9141 1984.6107,744.5234 L1984.6107,745.9766 Q1984.6107,746.5859 1984.3763,746.8516 Q1984.1419,747.1172 1983.7669,747.1172 Q1983.4232,747.1172 1983.2201,746.9141 Q1983.0169,746.7266 1982.9076,746.2109 Q1982.8607,745.8516 1982.6732,745.6641 Q1982.3451,745.2891 1981.7357,745.0703 Q1981.1263,744.8516 1980.5013,744.8516 Q1979.7357,744.8516 1979.0951,745.1797 Q1978.4701,745.5078 1977.9701,746.2578 Q1977.4857,747.0078 1977.4857,748.0391 L1977.4857,749.1328 Q1977.4857,750.3672 1978.3763,751.1953 Q1979.2669,752.0078 1980.8607,752.0078 Q1981.7982,752.0078 1982.4544,751.7578 Q1982.8451,751.6016 1983.2669,751.1641 Q1983.5326,750.8984 1983.6732,750.8203 Q1983.8294,750.7422 1984.0326,750.7422 Q1984.3607,750.7422 1984.6107,751.0078 Q1984.8763,751.2578 1984.8763,751.6016 Q1984.8763,751.9453 1984.5326,752.3516 Q1984.0326,752.9297 1983.2357,753.2578 Q1982.1576,753.7109 1980.8607,753.7109 Q1979.3451,753.7109 1978.1419,753.0859 Q1977.1576,752.5859 1976.4701,751.5234 Q1975.7826,750.4453 1975.7826,749.1641 L1975.7826,748.0078 Q1975.7826,746.6797 1976.3919,745.5391 Q1977.0169,744.3828 1978.1107,743.7734 Q1979.2044,743.1484 1980.4388,743.1484 Q1981.1732,743.1484 1981.8138,743.3203 Q1982.4701,743.4766 1983.0169,743.8359 Z " fill="#000000"/><text fill="#000000" font-family="sans-serif" font-size="12" font-style="italic" lengthAdjust="spacing" textLength="56.0391" x="2004.1872" y="744.0664">&#171;external&#187;</text><text fill="#000000" font-family="sans-serif" font-size="14" lengthAdjust="spacing" textLength="66.9102" x="1998.7516" y="761.2363">OllamaAPI</text><line style="stroke:#181818;stroke-width:0.5;" x1="1946" x2="2087.9131" y1="769.3125" y2="769.3125"/><text fill="#000000" font-family="sans-serif" font-size="14" lengthAdjust="spacing" textLength="131.9131" x="1951" y="787.8457">+POST /api/generate</text><line style="stroke:#181818;stroke-width:0.5;" x1="1946" x2="2087.9131" y1="794.9219" y2="794.9219"/></g><!--class FastAPIApp--><g id="elem_FastAPIApp"><rect codeLine="9" fill="#F1F1F1" height="188.875" id="FastAPIApp" rx="2.5" ry="2.5" style="stroke:#181818;stroke-width:0.5;" width="263.3574" x="1467.5" y="78.6094"/><ellipse cx="1557.5771" cy="94.6094" fill="#ADD1B2" rx="11" ry="11" style="stroke:#181818;stroke-width:1;"/><path d="M1560.3428,90.4844 Q1560.499,90.2656 1560.6865,90.1563 Q1560.874,90.0469 1561.0928,90.0469 Q1561.4678,90.0469 1561.7021,90.3125 Q1561.9365,90.5625 1561.9365,91.1719 L1561.9365,92.625 Q1561.9365,93.2344 1561.7021,93.5 Q1561.4678,93.7656 1561.0928,93.7656 Q1560.749,93.7656 1560.5459,93.5625 Q1560.3428,93.375 1560.2334,92.8594 Q1560.1865,92.5 1559.999,92.3125 Q1559.6709,91.9375 1559.0615,91.7188 Q1558.4521,91.5 1557.8271,91.5 Q1557.0615,91.5 1556.4209,91.8281 Q1555.7959,92.1563 1555.2959,92.9063 Q1554.8115,93.6563 1554.8115,94.6875 L1554.8115,95.7813 Q1554.8115,97.0156 1555.7021,97.8438 Q1556.5928,98.6563 1558.1865,98.6563 Q1559.124,98.6563 1559.7803,98.4063 Q1560.1709,98.25 1560.5928,97.8125 Q1560.8584,97.5469 1560.999,97.4688 Q1561.1553,97.3906 1561.3584,97.3906 Q1561.6865,97.3906 1561.9365,97.6563 Q1562.2021,97.9063 1562.2021,98.25 Q1562.2021,98.5938 1561.8584,99 Q1561.3584,99.5781 1560.5615,99.9063 Q1559.4834,100.3594 1558.1865,100.3594 Q1556.6709,100.3594 1555.4678,99.7344 Q1554.4834,99.2344 1553.7959,98.1719 Q1553.1084,97.0938 1553.1084,95.8125 L1553.1084,94.6563 Q1553.1084,93.3281 1553.7178,92.1875 Q1554.3428,91.0313 1555.4365,90.4219 Q1556.5303,89.7969 1557.7646,89.7969 Q1558.499,89.7969 1559.1396,89.9688 Q1559.7959,90.125 1560.3428,90.4844 Z " fill="#000000"/><text fill="#000000" font-family="sans-serif" font-size="14" lengthAdjust="spacing" textLength="74.7031" x="1578.0771" y="100.3379">FastAPIApp</text><line style="stroke:#181818;stroke-width:0.5;" x1="1468.5" x2="1729.8574" y1="110.6094" y2="110.6094"/><text fill="#000000" font-family="sans-serif" font-size="14" lengthAdjust="spacing" textLength="225.3125" x="1473.5" y="129.1426">+process_question(job_id, question)</text><text fill="#000000" font-family="sans-serif" font-size="14" lengthAdjust="spacing" textLength="180.1543" x="1473.5" y="146.752">+ask_question(question) : str</text><text fill="#000000" font-family="sans-serif" font-size="14" lengthAdjust="spacing" textLength="187.168" x="1473.5" y="164.3613">+ask_question_html(question)</text><text fill="#000000" font-family="sans-serif" font-size="14" lengthAdjust="spacing" textLength="116.3477" x="1473.5" y="181.9707">+get_result(job_id)</text><line style="stroke:#181818;stroke-width:1;" x1="1468.5" x2="1729.8574" y1="189.0469" y2="189.0469"/><text fill="#000000" font-family="sans-serif" font-size="14" lengthAdjust="spacing" textLength="161.0342" x="1473.5" y="207.5801">-retriever: HybridRetriever</text><text fill="#000000" font-family="sans-serif" font-size="14" lengthAdjust="spacing" textLength="218.6406" x="1473.5" y="225.1895">-reranker: CrossEncoderReranker?</text><text fill="#000000" font-family="sans-serif" font-size="14" lengthAdjust="spacing" textLength="251.3574" x="1473.5" y="242.7988">-embedding_service: EmbeddingService</text><text fill="#000000" font-family="sans-serif" font-size="14" lengthAdjust="spacing" textLength="133.8203" x="1473.5" y="260.4082">-ollama: OllamaClient</text></g><!--class HybridRetriever--><g id="elem_HybridRetriever"><rect codeLine="23" fill="#F1F1F1" height="136.0469" id="HybridRetriever" rx="2.5" ry="2.5" style="stroke:#181818;stroke-width:0.5;" width="591.7832" x="1059" y="341.6094"/><ellipse cx="1302.0176" cy="357.6094" fill="#ADD1B2" rx="11" ry="11" style="stroke:#181818;stroke-width:1;"/><path d="M1304.7832,353.4844 Q1304.9395,353.2656 1305.127,353.1563 Q1305.3145,353.0469 1305.5332,353.0469 Q1305.9082,353.0469 1306.1426,353.3125 Q1306.377,353.5625 1306.377,354.1719 L1306.377,355.625 Q1306.377,356.2344 1306.1426,356.5 Q1305.9082,356.7656 1305.5332,356.7656 Q1305.1895,356.7656 1304.9863,356.5625 Q1304.7832,356.375 1304.6738,355.8594 Q1304.627,355.5 1304.4395,355.3125 Q1304.1113,354.9375 1303.502,354.7188 Q1302.8926,354.5 1302.2676,354.5 Q1301.502,354.5 1300.8613,354.8281 Q1300.2363,355.1563 1299.7363,355.9063 Q1299.252,356.6563 1299.252,357.6875 L1299.252,358.7813 Q1299.252,360.0156 1300.1426,360.8438 Q1301.0332,361.6563 1302.627,361.6563 Q1303.5645,361.6563 1304.2207,361.4063 Q1304.6113,361.25 1305.0332,360.8125 Q1305.2988,360.5469 1305.4395,360.4688 Q1305.5957,360.3906 1305.7988,360.3906 Q1306.127,360.3906 1306.377,360.6563 Q1306.6426,360.9063 1306.6426,361.25 Q1306.6426,361.5938 1306.2988,362 Q1305.7988,362.5781 1305.002,362.9063 Q1303.9238,363.3594 1302.627,363.3594 Q1301.1113,363.3594 1299.9082,362.7344 Q1298.9238,362.2344 1298.2363,361.1719 Q1297.5488,360.0938 1297.5488,358.8125 L1297.5488,357.6563 Q1297.5488,356.3281 1298.1582,355.1875 Q1298.7832,354.0313 1299.877,353.4219 Q1300.9707,352.7969 1302.2051,352.7969 Q1302.9395,352.7969 1303.5801,352.9688 Q1304.2363,353.125 1304.7832,353.4844 Z " fill="#000000"/><text fill="#000000" font-family="sans-serif" font-size="14" lengthAdjust="spacing" textLength="97.248" x="1322.5176" y="363.3379">HybridRetriever</text><line style="stroke:#181818;stroke-width:0.5;" x1="1060" x2="1649.7832" y1="373.6094" y2="373.6094"/><text fill="#000000" font-family="sans-serif" font-size="14" lengthAdjust="spacing" textLength="157.9443" x="1065" y="392.1426">-chunk_records: List[Dict]</text><text fill="#000000" font-family="sans-serif" font-size="14" lengthAdjust="spacing" textLength="189.8818" x="1065" y="409.752">-bm25_index: BM25FieldIndex</text><text fill="#000000" font-family="sans-serif" font-size="14" lengthAdjust="spacing" textLength="249.792" x="1065" y="427.3613">-keyword_generator: KeywordGenerator</text><text fill="#000000" font-family="sans-serif" font-size="14" lengthAdjust="spacing" textLength="149.4063" x="1065" y="444.9707">-faiss_index: faiss.Index</text><line style="stroke:#181818;stroke-width:0.5;" x1="1060" x2="1649.7832" y1="452.0469" y2="452.0469"/><text fill="#000000" font-family="sans-serif" font-size="14" lengthAdjust="spacing" textLength="579.7832" x="1065" y="470.5801">+retrieve(question, embedding, top_k, reranker=None, reranker_k=30, reranker_weight=0.65)</text></g><!--class KeywordGenerator--><g id="elem_KeywordGenerator"><rect codeLine="31" fill="#F1F1F1" height="100.8281" id="KeywordGenerator" rx="2.5" ry="2.5" style="stroke:#181818;stroke-width:0.5;" width="230.6406" x="804.5" y="551.6094"/><ellipse cx="856.8188" cy="567.6094" fill="#ADD1B2" rx="11" ry="11" style="stroke:#181818;stroke-width:1;"/><path d="M859.5845,563.4844 Q859.7407,563.2656 859.9282,563.1563 Q860.1157,563.0469 860.3345,563.0469 Q860.7095,563.0469 860.9438,563.3125 Q861.1782,563.5625 861.1782,564.1719 L861.1782,565.625 Q861.1782,566.2344 860.9438,566.5 Q860.7095,566.7656 860.3345,566.7656 Q859.9907,566.7656 859.7876,566.5625 Q859.5845,566.375 859.4751,565.8594 Q859.4282,565.5 859.2407,565.3125 Q858.9126,564.9375 858.3032,564.7188 Q857.6938,564.5 857.0688,564.5 Q856.3032,564.5 855.6626,564.8281 Q855.0376,565.1563 854.5376,565.9063 Q854.0532,566.6563 854.0532,567.6875 L854.0532,568.7813 Q854.0532,570.0156 854.9438,570.8438 Q855.8345,571.6563 857.4282,571.6563 Q858.3657,571.6563 859.022,571.4063 Q859.4126,571.25 859.8345,570.8125 Q860.1001,570.5469 860.2407,570.4688 Q860.397,570.3906 860.6001,570.3906 Q860.9282,570.3906 861.1782,570.6563 Q861.4438,570.9063 861.4438,571.25 Q861.4438,571.5938 861.1001,572 Q860.6001,572.5781 859.8032,572.9063 Q858.7251,573.3594 857.4282,573.3594 Q855.9126,573.3594 854.7095,572.7344 Q853.7251,572.2344 853.0376,571.1719 Q852.3501,570.0938 852.3501,568.8125 L852.3501,567.6563 Q852.3501,566.3281 852.9595,565.1875 Q853.5845,564.0313 854.6782,563.4219 Q855.772,562.7969 857.0063,562.7969 Q857.7407,562.7969 858.3813,562.9688 Q859.0376,563.125 859.5845,563.4844 Z " fill="#000000"/><text fill="#000000" font-family="sans-serif" font-size="14" lengthAdjust="spacing" textLength="117.5029" x="877.3188" y="573.3379">KeywordGenerator</text><line style="stroke:#181818;stroke-width:0.5;" x1="805.5" x2="1034.1406" y1="583.6094" y2="583.6094"/><line style="stroke:#181818;stroke-width:0.5;" x1="805.5" x2="1034.1406" y1="591.6094" y2="591.6094"/><text fill="#000000" font-family="sans-serif" font-size="14" lengthAdjust="spacing" textLength="199.5957" x="810.5" y="610.1426">+extract(question) : KeywordSet</text><text fill="#000000" font-family="sans-serif" font-size="14" lengthAdjust="spacing" textLength="153.2686" x="810.5" y="627.752">-_tokenize(text) : List[str]</text><text fill="#000000" font-family="sans-serif" font-size="14" lengthAdjust="spacing" textLength="218.6406" x="810.5" y="645.3613">-_extract_phrases(tokens) : Set[str]</text></g><!--class BM25FieldIndex--><g id="elem_BM25FieldIndex"><rect codeLine="37" fill="#F1F1F1" height="83.2188" id="BM25FieldIndex" rx="2.5" ry="2.5" style="stroke:#181818;stroke-width:0.5;" width="256.6992" x="1053.5" y="560.6094"/><ellipse cx="1127.0171" cy="576.6094" fill="#ADD1B2" rx="11" ry="11" style="stroke:#181818;stroke-width:1;"/><path d="M1129.7827,572.4844 Q1129.939,572.2656 1130.1265,572.1563 Q1130.314,572.0469 1130.5327,572.0469 Q1130.9077,572.0469 1131.1421,572.3125 Q1131.3765,572.5625 1131.3765,573.1719 L1131.3765,574.625 Q1131.3765,575.2344 1131.1421,575.5 Q1130.9077,575.7656 1130.5327,575.7656 Q1130.189,575.7656 1129.9858,575.5625 Q1129.7827,575.375 1129.6733,574.8594 Q1129.6265,574.5 1129.439,574.3125 Q1129.1108,573.9375 1128.5015,573.7188 Q1127.8921,573.5 1127.2671,573.5 Q1126.5015,573.5 1125.8608,573.8281 Q1125.2358,574.1563 1124.7358,574.9063 Q1124.2515,575.6563 1124.2515,576.6875 L1124.2515,577.7813 Q1124.2515,579.0156 1125.1421,579.8438 Q1126.0327,580.6563 1127.6265,580.6563 Q1128.564,580.6563 1129.2202,580.4063 Q1129.6108,580.25 1130.0327,579.8125 Q1130.2983,579.5469 1130.439,579.4688 Q1130.5952,579.3906 1130.7983,579.3906 Q1131.1265,579.3906 1131.3765,579.6563 Q1131.6421,579.9063 1131.6421,580.25 Q1131.6421,580.5938 1131.2983,581 Q1130.7983,581.5781 1130.0015,581.9063 Q1128.9233,582.3594 1127.6265,582.3594 Q1126.1108,582.3594 1124.9077,581.7344 Q1123.9233,581.2344 1123.2358,580.1719 Q1122.5483,579.0938 1122.5483,577.8125 L1122.5483,576.6563 Q1122.5483,575.3281 1123.1577,574.1875 Q1123.7827,573.0313 1124.8765,572.4219 Q1125.9702,571.7969 1127.2046,571.7969 Q1127.939,571.7969 1128.5796,571.9688 Q1129.2358,572.125 1129.7827,572.4844 Z " fill="#000000"/><text fill="#000000" font-family="sans-serif" font-size="14" lengthAdjust="spacing" textLength="101.165" x="1147.5171" y="582.3379">BM25FieldIndex</text><line style="stroke:#181818;stroke-width:0.5;" x1="1054.5" x2="1309.1992" y1="592.6094" y2="592.6094"/><line style="stroke:#181818;stroke-width:0.5;" x1="1054.5" x2="1309.1992" y1="600.6094" y2="600.6094"/><text fill="#000000" font-family="sans-serif" font-size="14" lengthAdjust="spacing" textLength="212.8096" x="1059.5" y="619.1426">+score(query_terms, chunk) : float</text><text fill="#000000" font-family="sans-serif" font-size="14" lengthAdjust="spacing" textLength="244.6992" x="1059.5" y="636.752">+search(query_terms, top_k) : List[Dict]</text></g><!--class QueryRewriter--><g id="elem_QueryRewriter"><rect codeLine="42" fill="#F1F1F1" height="65.6094" id="QueryRewriter" rx="2.5" ry="2.5" style="stroke:#181818;stroke-width:0.5;" width="151.6582" x="1669" y="376.6094"/><ellipse cx="1697.2376" cy="392.6094" fill="#ADD1B2" rx="11" ry="11" style="stroke:#181818;stroke-width:1;"/><path d="M1700.0033,388.4844 Q1700.1595,388.2656 1700.347,388.1563 Q1700.5345,388.0469 1700.7533,388.0469 Q1701.1283,388.0469 1701.3626,388.3125 Q1701.597,388.5625 1701.597,389.1719 L1701.597,390.625 Q1701.597,391.2344 1701.3626,391.5 Q1701.1283,391.7656 1700.7533,391.7656 Q1700.4095,391.7656 1700.2064,391.5625 Q1700.0033,391.375 1699.8939,390.8594 Q1699.847,390.5 1699.6595,390.3125 Q1699.3314,389.9375 1698.722,389.7188 Q1698.1126,389.5 1697.4876,389.5 Q1696.722,389.5 1696.0814,389.8281 Q1695.4564,390.1563 1694.9564,390.9063 Q1694.472,391.6563 1694.472,392.6875 L1694.472,393.7813 Q1694.472,395.0156 1695.3626,395.8438 Q1696.2533,396.6563 1697.847,396.6563 Q1698.7845,396.6563 1699.4408,396.4063 Q1699.8314,396.25 1700.2533,395.8125 Q1700.5189,395.5469 1700.6595,395.4688 Q1700.8158,395.3906 1701.0189,395.3906 Q1701.347,395.3906 1701.597,395.6563 Q1701.8626,395.9063 1701.8626,396.25 Q1701.8626,396.5938 1701.5189,397 Q1701.0189,397.5781 1700.222,397.9063 Q1699.1439,398.3594 1697.847,398.3594 Q1696.3314,398.3594 1695.1283,397.7344 Q1694.1439,397.2344 1693.4564,396.1719 Q1692.7689,395.0938 1692.7689,393.8125 L1692.7689,392.6563 Q1692.7689,391.3281 1693.3783,390.1875 Q1694.0033,389.0313 1695.097,388.4219 Q1696.1908,387.7969 1697.4251,387.7969 Q1698.1595,387.7969 1698.8001,387.9688 Q1699.4564,388.125 1700.0033,388.4844 Z " fill="#000000"/><text fill="#000000" font-family="sans-serif" font-size="14" lengthAdjust="spacing" textLength="90.2412" x="1714.1793" y="398.3379">QueryRewriter</text><line style="stroke:#181818;stroke-width:0.5;" x1="1670" x2="1819.6582" y1="408.6094" y2="408.6094"/><line style="stroke:#181818;stroke-width:0.5;" x1="1670" x2="1819.6582" y1="416.6094" y2="416.6094"/><text fill="#000000" font-family="sans-serif" font-size="14" lengthAdjust="spacing" textLength="139.6582" x="1675" y="435.1426">+rewrite(question) : str</text></g><!--class CrossEncoderReranker--><g id="elem_CrossEncoderReranker"><rect codeLine="46" fill="#F1F1F1" height="100.8281" id="CrossEncoderReranker" rx="2.5" ry="2.5" style="stroke:#181818;stroke-width:0.5;" width="281.623" x="759" y="359.1094"/><ellipse cx="822.4204" cy="375.1094" fill="#ADD1B2" rx="11" ry="11" style="stroke:#181818;stroke-width:1;"/><path d="M825.186,370.9844 Q825.3423,370.7656 825.5298,370.6563 Q825.7173,370.5469 825.936,370.5469 Q826.311,370.5469 826.5454,370.8125 Q826.7798,371.0625 826.7798,371.6719 L826.7798,373.125 Q826.7798,373.7344 826.5454,374 Q826.311,374.2656 825.936,374.2656 Q825.5923,374.2656 825.3892,374.0625 Q825.186,373.875 825.0767,373.3594 Q825.0298,373 824.8423,372.8125 Q824.5142,372.4375 823.9048,372.2188 Q823.2954,372 822.6704,372 Q821.9048,372 821.2642,372.3281 Q820.6392,372.6563 820.1392,373.4063 Q819.6548,374.1563 819.6548,375.1875 L819.6548,376.2813 Q819.6548,377.5156 820.5454,378.3438 Q821.436,379.1563 823.0298,379.1563 Q823.9673,379.1563 824.6235,378.9063 Q825.0142,378.75 825.436,378.3125 Q825.7017,378.0469 825.8423,377.9688 Q825.9985,377.8906 826.2017,377.8906 Q826.5298,377.8906 826.7798,378.1563 Q827.0454,378.4063 827.0454,378.75 Q827.0454,379.0938 826.7017,379.5 Q826.2017,380.0781 825.4048,380.4063 Q824.3267,380.8594 823.0298,380.8594 Q821.5142,380.8594 820.311,380.2344 Q819.3267,379.7344 818.6392,378.6719 Q817.9517,377.5938 817.9517,376.3125 L817.9517,375.1563 Q817.9517,373.8281 818.561,372.6875 Q819.186,371.5313 820.2798,370.9219 Q821.3735,370.2969 822.6079,370.2969 Q823.3423,370.2969 823.9829,370.4688 Q824.6392,370.625 825.186,370.9844 Z " fill="#000000"/><text fill="#000000" font-family="sans-serif" font-size="14" lengthAdjust="spacing" textLength="146.2822" x="842.9204" y="380.8379">CrossEncoderReranker</text><line style="stroke:#181818;stroke-width:0.5;" x1="760" x2="1039.623" y1="391.1094" y2="391.1094"/><text fill="#000000" font-family="sans-serif" font-size="14" lengthAdjust="spacing" textLength="108.9307" x="765" y="409.6426">-model_name: str</text><text fill="#000000" font-family="sans-serif" font-size="14" lengthAdjust="spacing" textLength="139.2754" x="765" y="427.252">-model: CrossEncoder</text><line style="stroke:#181818;stroke-width:0.5;" x1="760" x2="1039.623" y1="434.3281" y2="434.3281"/><text fill="#000000" font-family="sans-serif" font-size="14" lengthAdjust="spacing" textLength="269.623" x="765" y="452.8613">+rerank(question, chunks, top_k) : List[Dict]</text></g><!--class ContextSelector--><g id="elem_ContextSelector"><rect codeLine="52" fill="#F1F1F1" height="65.6094" id="ContextSelector" rx="2.5" ry="2.5" style="stroke:#181818;stroke-width:0.5;" width="492.1221" x="1329" y="569.1094"/><ellipse cx="1521.0078" cy="585.1094" fill="#ADD1B2" rx="11" ry="11" style="stroke:#181818;stroke-width:1;"/><path d="M1523.7734,580.9844 Q1523.9297,580.7656 1524.1172,580.6563 Q1524.3047,580.5469 1524.5234,580.5469 Q1524.8984,580.5469 1525.1328,580.8125 Q1525.3672,581.0625 1525.3672,581.6719 L1525.3672,583.125 Q1525.3672,583.7344 1525.1328,584 Q1524.8984,584.2656 1524.5234,584.2656 Q1524.1797,584.2656 1523.9766,584.0625 Q1523.7734,583.875 1523.6641,583.3594 Q1523.6172,583 1523.4297,582.8125 Q1523.1016,582.4375 1522.4922,582.2188 Q1521.8828,582 1521.2578,582 Q1520.4922,582 1519.8516,582.3281 Q1519.2266,582.6563 1518.7266,583.4063 Q1518.2422,584.1563 1518.2422,585.1875 L1518.2422,586.2813 Q1518.2422,587.5156 1519.1328,588.3438 Q1520.0234,589.1563 1521.6172,589.1563 Q1522.5547,589.1563 1523.2109,588.9063 Q1523.6016,588.75 1524.0234,588.3125 Q1524.2891,588.0469 1524.4297,587.9688 Q1524.5859,587.8906 1524.7891,587.8906 Q1525.1172,587.8906 1525.3672,588.1563 Q1525.6328,588.4063 1525.6328,588.75 Q1525.6328,589.0938 1525.2891,589.5 Q1524.7891,590.0781 1523.9922,590.4063 Q1522.9141,590.8594 1521.6172,590.8594 Q1520.1016,590.8594 1518.8984,590.2344 Q1517.9141,589.7344 1517.2266,588.6719 Q1516.5391,587.5938 1516.5391,586.3125 L1516.5391,585.1563 Q1516.5391,583.8281 1517.1484,582.6875 Q1517.7734,581.5313 1518.8672,580.9219 Q1519.9609,580.2969 1521.1953,580.2969 Q1521.9297,580.2969 1522.5703,580.4688 Q1523.2266,580.625 1523.7734,580.9844 Z " fill="#000000"/><text fill="#000000" font-family="sans-serif" font-size="14" lengthAdjust="spacing" textLength="99.6064" x="1541.5078" y="590.8379">ContextSelector</text><line style="stroke:#181818;stroke-width:0.5;" x1="1330" x2="1820.1221" y1="601.1094" y2="601.1094"/><line style="stroke:#181818;stroke-width:0.5;" x1="1330" x2="1820.1221" y1="609.1094" y2="609.1094"/><text fill="#000000" font-family="sans-serif" font-size="14" lengthAdjust="spacing" textLength="480.1221" x="1335" y="627.6426">+select(chunks, max_chunks=6, min_chunks=4, max_chars=1800) : List[Dict]</text></g><!--class EmbeddingService--><g id="elem_EmbeddingService"><rect codeLine="58" fill="#F1F1F1" height="100.8281" id="EmbeddingService" rx="2.5" ry="2.5" style="stroke:#181818;stroke-width:0.5;" width="410.0771" x="286" y="551.6094"/><ellipse cx="428.0337" cy="567.6094" fill="#ADD1B2" rx="11" ry="11" style="stroke:#181818;stroke-width:1;"/><path d="M430.7993,563.4844 Q430.9556,563.2656 431.1431,563.1563 Q431.3306,563.0469 431.5493,563.0469 Q431.9243,563.0469 432.1587,563.3125 Q432.3931,563.5625 432.3931,564.1719 L432.3931,565.625 Q432.3931,566.2344 432.1587,566.5 Q431.9243,566.7656 431.5493,566.7656 Q431.2056,566.7656 431.0024,566.5625 Q430.7993,566.375 430.6899,565.8594 Q430.6431,565.5 430.4556,565.3125 Q430.1274,564.9375 429.5181,564.7188 Q428.9087,564.5 428.2837,564.5 Q427.5181,564.5 426.8774,564.8281 Q426.2524,565.1563 425.7524,565.9063 Q425.2681,566.6563 425.2681,567.6875 L425.2681,568.7813 Q425.2681,570.0156 426.1587,570.8438 Q427.0493,571.6563 428.6431,571.6563 Q429.5806,571.6563 430.2368,571.4063 Q430.6274,571.25 431.0493,570.8125 Q431.3149,570.5469 431.4556,570.4688 Q431.6118,570.3906 431.8149,570.3906 Q432.1431,570.3906 432.3931,570.6563 Q432.6587,570.9063 432.6587,571.25 Q432.6587,571.5938 432.3149,572 Q431.8149,572.5781 431.0181,572.9063 Q429.9399,573.3594 428.6431,573.3594 Q427.1274,573.3594 425.9243,572.7344 Q424.9399,572.2344 424.2524,571.1719 Q423.5649,570.0938 423.5649,568.8125 L423.5649,567.6563 Q423.5649,566.3281 424.1743,565.1875 Q424.7993,564.0313 425.8931,563.4219 Q426.9868,562.7969 428.2212,562.7969 Q428.9556,562.7969 429.5962,562.9688 Q430.2524,563.125 430.7993,563.4844 Z " fill="#000000"/><text fill="#000000" font-family="sans-serif" font-size="14" lengthAdjust="spacing" textLength="117.5098" x="448.5337" y="573.3379">EmbeddingService</text><line style="stroke:#181818;stroke-width:0.5;" x1="287" x2="695.0771" y1="583.6094" y2="583.6094"/><line style="stroke:#181818;stroke-width:0.5;" x1="287" x2="695.0771" y1="591.6094" y2="591.6094"/><text fill="#000000" font-family="sans-serif" font-size="14" lengthAdjust="spacing" textLength="315.1572" x="292" y="610.1426">+get_embeddings(texts, normalize=True) : ndarray</text><text fill="#000000" font-family="sans-serif" font-size="14" lengthAdjust="spacing" textLength="398.0771" x="292" y="627.752">+save_embeddings_to_faiss(embeddings, chunk_records, path)</text><text fill="#000000" font-family="sans-serif" font-size="14" lengthAdjust="spacing" textLength="369.2363" x="292" y="645.3613">+load_faiss_index(path) : (faiss.Index?, List[Dict], ndarray?)</text></g><!--class PDFChunker--><g id="elem_PDFChunker"><rect codeLine="64" fill="#F1F1F1" height="65.6094" id="PDFChunker" rx="2.5" ry="2.5" style="stroke:#181818;stroke-width:0.5;" width="466.1455" x="230" y="731.6094"/><ellipse cx="418.3643" cy="747.6094" fill="#ADD1B2" rx="11" ry="11" style="stroke:#181818;stroke-width:1;"/><path d="M421.1299,743.4844 Q421.2861,743.2656 421.4736,743.1563 Q421.6611,743.0469 421.8799,743.0469 Q422.2549,743.0469 422.4893,743.3125 Q422.7236,743.5625 422.7236,744.1719 L422.7236,745.625 Q422.7236,746.2344 422.4893,746.5 Q422.2549,746.7656 421.8799,746.7656 Q421.5361,746.7656 421.333,746.5625 Q421.1299,746.375 421.0205,745.8594 Q420.9736,745.5 420.7861,745.3125 Q420.458,744.9375 419.8486,744.7188 Q419.2393,744.5 418.6143,744.5 Q417.8486,744.5 417.208,744.8281 Q416.583,745.1563 416.083,745.9063 Q415.5986,746.6563 415.5986,747.6875 L415.5986,748.7813 Q415.5986,750.0156 416.4893,750.8438 Q417.3799,751.6563 418.9736,751.6563 Q419.9111,751.6563 420.5674,751.4063 Q420.958,751.25 421.3799,750.8125 Q421.6455,750.5469 421.7861,750.4688 Q421.9424,750.3906 422.1455,750.3906 Q422.4736,750.3906 422.7236,750.6563 Q422.9893,750.9063 422.9893,751.25 Q422.9893,751.5938 422.6455,752 Q422.1455,752.5781 421.3486,752.9063 Q420.2705,753.3594 418.9736,753.3594 Q417.458,753.3594 416.2549,752.7344 Q415.2705,752.2344 414.583,751.1719 Q413.8955,750.0938 413.8955,748.8125 L413.8955,747.6563 Q413.8955,746.3281 414.5049,745.1875 Q415.1299,744.0313 416.2236,743.4219 Q417.3174,742.7969 418.5518,742.7969 Q419.2861,742.7969 419.9268,742.9688 Q420.583,743.125 421.1299,743.4844 Z " fill="#000000"/><text fill="#000000" font-family="sans-serif" font-size="14" lengthAdjust="spacing" textLength="80.917" x="438.8643" y="753.3379">PDFChunker</text><line style="stroke:#181818;stroke-width:0.5;" x1="231" x2="695.1455" y1="763.6094" y2="763.6094"/><line style="stroke:#181818;stroke-width:0.5;" x1="231" x2="695.1455" y1="771.6094" y2="771.6094"/><text fill="#000000" font-family="sans-serif" font-size="14" lengthAdjust="spacing" textLength="454.1455" x="236" y="790.1426">+load_and_chunk_pdf(pdf_path, chunk_size=200, overlap=50) : List[Dict]</text></g><!--class OllamaClient--><g id="elem_OllamaClient"><rect codeLine="70" fill="#F1F1F1" height="100.8281" id="OllamaClient" rx="2.5" ry="2.5" style="stroke:#181818;stroke-width:0.5;" width="344.1172" x="1845" y="551.6094"/><ellipse cx="1972.7397" cy="567.6094" fill="#ADD1B2" rx="11" ry="11" style="stroke:#181818;stroke-width:1;"/><path d="M1975.5054,563.4844 Q1975.6616,563.2656 1975.8491,563.1563 Q1976.0366,563.0469 1976.2554,563.0469 Q1976.6304,563.0469 1976.8647,563.3125 Q1977.0991,563.5625 1977.0991,564.1719 L1977.0991,565.625 Q1977.0991,566.2344 1976.8647,566.5 Q1976.6304,566.7656 1976.2554,566.7656 Q1975.9116,566.7656 1975.7085,566.5625 Q1975.5054,566.375 1975.396,565.8594 Q1975.3491,565.5 1975.1616,565.3125 Q1974.8335,564.9375 1974.2241,564.7188 Q1973.6147,564.5 1972.9897,564.5 Q1972.2241,564.5 1971.5835,564.8281 Q1970.9585,565.1563 1970.4585,565.9063 Q1969.9741,566.6563 1969.9741,567.6875 L1969.9741,568.7813 Q1969.9741,570.0156 1970.8647,570.8438 Q1971.7554,571.6563 1973.3491,571.6563 Q1974.2866,571.6563 1974.9429,571.4063 Q1975.3335,571.25 1975.7554,570.8125 Q1976.021,570.5469 1976.1616,570.4688 Q1976.3179,570.3906 1976.521,570.3906 Q1976.8491,570.3906 1977.0991,570.6563 Q1977.3647,570.9063 1977.3647,571.25 Q1977.3647,571.5938 1977.021,572 Q1976.521,572.5781 1975.7241,572.9063 Q1974.646,573.3594 1973.3491,573.3594 Q1971.8335,573.3594 1970.6304,572.7344 Q1969.646,572.2344 1968.9585,571.1719 Q1968.271,570.0938 1968.271,568.8125 L1968.271,567.6563 Q1968.271,566.3281 1968.8804,565.1875 Q1969.5054,564.0313 1970.5991,563.4219 Q1971.6929,562.7969 1972.9272,562.7969 Q1973.6616,562.7969 1974.3022,562.9688 Q1974.9585,563.125 1975.5054,563.4844 Z " fill="#000000"/><text fill="#000000" font-family="sans-serif" font-size="14" lengthAdjust="spacing" textLength="80.1377" x="1993.2397" y="573.3379">OllamaClient</text><line style="stroke:#181818;stroke-width:0.5;" x1="1846" x2="2188.1172" y1="583.6094" y2="583.6094"/><line style="stroke:#181818;stroke-width:0.5;" x1="1846" x2="2188.1172" y1="591.6094" y2="591.6094"/><text fill="#000000" font-family="sans-serif" font-size="14" lengthAdjust="spacing" textLength="332.1172" x="1851" y="610.1426">+generate(prompt, model, language=\"Deutsch\") : str</text><text fill="#000000" font-family="sans-serif" font-size="14" lengthAdjust="spacing" textLength="292.1748" x="1851" y="627.752">+stream_generate(prompt, model) : Iterator[str]</text><text fill="#000000" font-family="sans-serif" font-size="14" lengthAdjust="spacing" textLength="194.5508" x="1851" y="645.3613">-_post(endpoint, payload) : Dict</text></g><polygon fill="#181818" points="1424.9174,341.4142,1434.1782,338.0618,1428.5224,337.9495,1428.6347,332.2938,1424.9174,341.4142" style="stroke:#181818;stroke-width:1;"/><path d="M1501.5128,267.801 C1475.8937,292.4226 1453.0965,314.3322 1429.2434,337.2566 " fill="#FFFFFF" fill-opacity="0.00000" style="stroke:#181818;stroke-width:1;"/><text fill="#000000" font-family="sans-serif" font-size="13" lengthAdjust="spacing" textLength="27.46" x="1479" y="301.1045">uses</text><polygon fill="#181818" points="1724.9595,376.4211,1723.5984,366.6667,1722.3169,372.1765,1716.8071,370.895,1724.9595,376.4211" style="stroke:#181818;stroke-width:1;"/><path d="M1657.3325,267.801 C1681.3195,306.328 1704.339,343.3012 1721.7883,371.3276 " fill="#FFFFFF" fill-opacity="0.00000" style="stroke:#181818;stroke-width:1;"/><text fill="#000000" font-family="sans-serif" font-size="13" lengthAdjust="spacing" textLength="27.46" x="1683" y="301.1045">uses</text><polygon fill="#181818" points="511.5498,551.5737,518.9292,545.051,513.6283,547.0262,511.6531,541.7254,511.5498,551.5737" style="stroke:#181818;stroke-width:1;"/><path d="M1467.4355,181.9854 C1249.1611,197.0855 823.6339,235.7508 697,313.6094 C604.677,370.3725 544.2318,480.0695 514.044,546.1167 " fill="#FFFFFF" fill-opacity="0.00000" style="stroke:#181818;stroke-width:1;"/><text fill="#000000" font-family="sans-serif" font-size="13" lengthAdjust="spacing" textLength="46.249" x="699" y="415.1045">embeds</text><polygon fill="#181818" points="1697.5409,569.0993,1707.2859,570.5258,1702.3559,567.7518,1705.1299,562.8218,1697.5409,569.0993" style="stroke:#181818;stroke-width:1;"/><path d="M1730.5993,225.1966 C1768.956,246.6558 1806.759,275.6522 1830,313.6094 C1876.9777,390.3331 1896.0732,442.9687 1843,515.6094 C1833.5642,528.5241 1769.3859,548.9931 1703.3189,567.4823 " fill="#FFFFFF" fill-opacity="0.00000" style="stroke:#181818;stroke-width:1;"/><text fill="#000000" font-family="sans-serif" font-size="13" lengthAdjust="spacing" textLength="78.0381" x="1876" y="415.1045">builds prompt</text><polygon fill="#181818" points="968.4274,358.8642,978.1469,357.2732,972.6084,356.1221,973.7595,350.5836,968.4274,358.8642" style="stroke:#181818;stroke-width:1;"/><path d="M1467.366,195.4575 C1353.7094,216.6998 1186.7215,254.7215 1050,313.6094 C1021.9723,325.6813 998.2068,339.3331 973.4446,355.5737 " fill="#FFFFFF" fill-opacity="0.00000" style="stroke:#181818;stroke-width:1;"/><text fill="#000000" font-family="sans-serif" font-size="13" lengthAdjust="spacing" textLength="45.5381" x="1109" y="301.1045">optional</text><polygon fill="#181818" points="2020.7617,551.566,2025.0484,542.6989,2020.9221,546.5685,2017.0526,542.4422,2020.7617,551.566" style="stroke:#181818;stroke-width:1;"/><path d="M1730.8792,192.8001 C1808.7437,210.744 1902.9393,245.7109 1960,313.6094 C2016.7175,381.0995 2022.9656,482.9191 2020.9542,545.569 " fill="#FFFFFF" fill-opacity="0.00000" style="stroke:#181818;stroke-width:1;"/><text fill="#000000" font-family="sans-serif" font-size="13" lengthAdjust="spacing" textLength="48.4072" x="2020" y="415.1045">answers</text><polygon fill="#181818" points="1942.1117,551.3651,1936.876,543.0232,1937.9628,548.5747,1932.4113,549.6615,1942.1117,551.3651" style="stroke:#181818;stroke-width:1;"/><path d="M1787.2973,442.6906 C1802.2627,453.8831 1819.2831,466.4348 1835,477.6094 C1869.8553,502.3914 1904.0695,525.7793 1937.133,548.0166 " fill="#FFFFFF" fill-opacity="0.00000" style="stroke:#181818;stroke-width:1;"/><text fill="#000000" font-family="sans-serif" font-size="13" lengthAdjust="spacing" textLength="83.0781" x="1886" y="511.1045">rewrite prompt</text><polygon fill="#181818" points="993.6326,551.5715,1003.3981,550.2927,997.8993,548.9648,999.2273,543.466,993.6326,551.5715" style="stroke:#181818;stroke-width:1;"/><path d="M1151.2619,477.6549 C1114.9793,491.5566 1077.9523,507.0594 1044,523.6094 C1027.2274,531.7852 1014.9845,538.5266 998.7527,548.4434 " fill="#FFFFFF" fill-opacity="0.00000" style="stroke:#181818;stroke-width:1;"/><text fill="#000000" font-family="sans-serif" font-size="13" lengthAdjust="spacing" textLength="88.8799" x="1104" y="511.1045">compose query</text><polygon fill="#181818" points="1218.8162,560.569,1227.8279,556.5955,1222.1776,556.8675,1221.9056,551.2172,1218.8162,560.569" style="stroke:#181818;stroke-width:1;"/><path d="M1294.0067,477.7725 C1268.9082,505.4098 1244.6971,532.07 1222.8499,556.1272 " fill="#FFFFFF" fill-opacity="0.00000" style="stroke:#181818;stroke-width:1;"/><text fill="#000000" font-family="sans-serif" font-size="13" lengthAdjust="spacing" textLength="78.0254" x="1276" y="511.1045">lexical scores</text><polygon fill="#181818" points="1537.8229,568.9174,1533.6376,560.0021,1534.0431,565.6444,1528.4008,566.0499,1537.8229,568.9174" style="stroke:#181818;stroke-width:1;"/><path d="M1432.5638,477.7725 C1468.3158,508.7306 1504.5526,540.1083 1533.2871,564.9898 " fill="#FFFFFF" fill-opacity="0.00000" style="stroke:#181818;stroke-width:1;"/><text fill="#000000" font-family="sans-serif" font-size="13" lengthAdjust="spacing" textLength="89.6099" x="1474" y="511.1045">select evidence</text><polygon fill="#181818" points="543.4135,551.3769,552.9029,548.7403,547.2721,548.1972,547.8153,542.5665,543.4135,551.3769" style="stroke:#181818;stroke-width:1;"/><path d="M1058.9093,476.4089 C1055.9271,476.8229 1052.9567,477.2233 1050,477.6094 C958.6883,489.5328 722.9306,465.2274 636,495.6094 C602.0562,507.4726 573.8561,526.2906 548.0439,547.5613 " fill="#FFFFFF" fill-opacity="0.00000" style="stroke:#181818;stroke-width:1;"/><text fill="#000000" font-family="sans-serif" font-size="13" lengthAdjust="spacing" textLength="78.0508" x="638" y="511.1045">dense search</text><polygon fill="#181818" points="738.0759,708.5668,738.5194,698.7279,736.253,703.9109,731.07,701.6446,738.0759,708.5668" style="stroke:#181818;stroke-width:1;"/><path d="M1058.8399,475.9676 C1055.8798,476.5222 1052.9325,477.0697 1050,477.6094 C981.7234,490.1755 786.3318,471.0296 741,523.6094 C697.4055,574.1741 714.8747,649.3084 735.8884,702.9798 " fill="#FFFFFF" fill-opacity="0.00000" style="stroke:#181818;stroke-width:1;"/><text fill="#000000" font-family="sans-serif" font-size="13" lengthAdjust="spacing" textLength="50.5527" x="743" y="607.6045">similarity</text><polygon fill="#181818" points="180.0481,726.4965,189.8891,726.1014,184.5321,724.2842,186.3493,718.9272,180.0481,726.4965" style="stroke:#181818;stroke-width:1;"/><path d="M354.8786,652.6874 C310.825,669.5351 261.9983,689.0643 218,708.6094 C205.6026,714.1166 197.9721,717.6529 185.4288,723.8417 " fill="#FFFFFF" fill-opacity="0.00000" style="stroke:#181818;stroke-width:1;"/><text fill="#000000" font-family="sans-serif" font-size="13" lengthAdjust="spacing" textLength="49.1499" x="310" y="686.1045">encodes</text><polygon fill="#181818" points="713.6752,712.7718,708.9717,704.1186,709.709,709.7272,704.1004,710.4645,713.6752,712.7718" style="stroke:#181818;stroke-width:1;"/><path d="M591.7159,652.6109 C617.2266,665.0753 644.5971,678.3847 670,690.6094 C686.8394,698.713 692.676,697.9132 708,708.6094 C709.8996,709.9353 707.0345,707.6742 708.9158,709.1183 " fill="#FFFFFF" fill-opacity="0.00000" style="stroke:#181818;stroke-width:1;"/><text fill="#000000" font-family="sans-serif" font-size="13" lengthAdjust="spacing" textLength="44.7891" x="672" y="686.1045">persists</text><polygon fill="#181818" points="494.1413,652.9116,490.0849,661.8863,494.1099,657.9115,498.0848,661.9365,494.1413,652.9116" style="stroke:#181818;stroke-width:1;"/><path d="M478.3211,731.2833 C483.424,718.859 488.454,704.3567 491,690.6094 C493.2408,678.5104 494.0259,671.3079 494.1037,658.9115 " fill="#FFFFFF" fill-opacity="0.00000" style="stroke:#181818;stroke-width:1;"/><text fill="#000000" font-family="sans-serif" font-size="13" lengthAdjust="spacing" textLength="62.1563" x="496" y="686.1045">build index</text><polygon fill="#181818" points="415.6425,731.3571,411.6395,722.3584,411.93,728.0078,406.2807,728.2983,415.6425,731.3571" style="stroke:#181818;stroke-width:1;"/><path d="M405.5145,652.8586 C400.6391,658.2963 396.3635,664.2086 393,670.6094 C381.6257,692.255 392.187,710.1961 411.1876,727.3379 " fill="#FFFFFF" fill-opacity="0.00000" style="stroke:#181818;stroke-width:1;"/><text fill="#000000" font-family="sans-serif" font-size="13" lengthAdjust="spacing" textLength="90.3335" x="395" y="686.1045">share metadata</text><polygon fill="#181818" points="2017,726.4882,2021,717.4882,2017,721.4882,2013,717.4882,2017,726.4882" style="stroke:#181818;stroke-width:1;"/><path d="M2017,653.0128 C2017,676.7544 2017,698.6518 2017,720.4882 " fill="#FFFFFF" fill-opacity="0.00000" style="stroke:#181818;stroke-width:1;"/><text fill="#000000" font-family="sans-serif" font-size="13" lengthAdjust="spacing" textLength="33.9409" x="2019" y="686.1045">HTTP</text><!--SRC=[ZLRRRkCs47tNLx1-ABI8dNNJ9YY4E46QRDfWdMuQvwrR2BGqjbbHf4fIJjnY_xr3Ih98MulMW66JF7FXcHk_gHHTbvHmkfEr8Re4GmMDTC54HHKjIKMpWgvXONOSY88CZzSSF436gTOtnYYsh0qyP58isDz0fXv4RsWkNvbOanNb6gB8C8FQ5dLLIMLkgefCo4TGeh2gG4HHQvICxgasDqyFP4vte4RaduZWnraaxP6LRhRjvwHICWEjqxzgq8P94VyfbodBnwJRUDTZgIvwtFwS94GRDOnADwRayO2gDPXKWQwvQGtsPvD9_rS1qWHRK0dvPRTKB7_kDdoCegAma5ibjVuWCfc3UcvthtiWb4l8SsGrrQ2sB8E4VEYs5irE3vQSqv8cv9FxlUKCX76dNw8l7j-jFvIJ9rO1Pm92qW-yzfYVP9jQ54X29bMk4p9dsln-npBpHmzPbcVdAHCvl2NafyUpyti6F7-mwnvJmEuLDQHh47Xb8v67ZytMpzrE3rvHXh5kDRh5QQZkf6Dy7xGnsVCs9aPMQJ4c7UMpNwM0VfaMi- -dtl8Ls7fZPjFJY_DtBNSUDOTU-ba9RqRHp0H9rk8NOFhxf4OM8B1yOeCY5kLen7pqM4nRRMcrKLI3ZfsGjcXKreC3xqAwVTyq1ipHetQf0LNgCN6XjFfMN5BZGO6gR1DY7OLxJ_k01zP_inBFyAgO2P86m-Fs1gilq31K2txsbNZ0Kq5B2CktEGXhoJTlDNcvuMx-VszrAuKDqm8ujiKmuDhjnPswahwbpV_P1QwOw5O_T6TKwTbtFqwdWpRz2jsNEFcMk5Y61NhO0NodR9FQ9xzsAOQ-2QbAoZ7dPY-g1cjVv5GfklDkGxVWIMAMfgxOudwlfQwh_p7E3RFn6YGcKfvwvHgxSpGMUsLxFVRkFkxyk1uejgUx-rjhBymcPuIAl64thV9LZD_Kckhyq_QYPrCiQudzYzDgTlxVdC_dZ-GcitCb9DjlfY7HhWT0ZDEeh0p6s2RX68UiMDUeSVPvT0UrqTdcy-Xetk02Q9aEwx3e1zCqcCEsK4bjOX1v9PamDW0xouULiFVghzMDJwIzQGQNbpYwPAqokBfght7YWfIk66zcoCdMfRW-5LMJ5oTD0fzM1UzrBf0741cyO5Nf5UOLg4VhzQ05Mwkp4ULyyiW4cpzEvXUJxTcerzQmQwV_vIMcAhuFAE_5dpujNiXxMh7t7LDMqdiKJ2PNH-Cg8JKsp4DKs9s6CKTrbJHpv0Xus1GIigmPppLfudW47-fh2P6LxKUK7yA3Z4i8qlmAIaTHU8K1PDjeEoyEYR4IHmCi8Hc2fGRYElwWqC5SIGY7DvRX-y6D5JqeSqnHqou9R5bkysTGQY0224RdcgaqAECbEHfX9UCKMTX5Hxei-AlPYw5s0TB3Se6H2iE1hKH7NeVwYlSkBuWhj675deh4lg4L4FiypwcXKH3UFjwsMl1j-VBo5FqB]--></g></svg>